<?xml version="1.0" encoding="UTF-8"?>
<svg id="Layer_2" data-name="Layer 2" xmlns="http://www.w3.org/2000/svg" viewBox="0 0 425 425">
  <g id="Layer_1-2" data-name="Layer 1">
    <path d="M410.55,425h-117.08c-1.59,0-3.11-.63-4.23-1.75l-122.03-122.03c-3.77-3.77-1.1-10.21,4.23-10.21h117.08c1.59,0,3.11.63,4.23,1.75l122.03,122.03c3.77,3.77,1.1,10.21-4.23,10.21ZM121.74,291h0c-18.18-21-29.2-48.39-29.24-78.34-.09-65.35,52.88-119.2,118.22-120.15,67.09-.97,121.78,53.12,121.78,119.99,0,23.06-6.51,44.59-17.79,62.88-1.48,2.4-1.14,5.49.85,7.48l57.79,57.79c2.6,2.6,6.91,2.32,9.11-.61,35.67-47.46,51.94-110.33,36.97-176.86C401.82,84.82,340.37,23.29,262.04,5.6,123.14-25.77,0,78.98,0,212.5c0,117.36,95.14,212.5,212.5,212.5,9.37,0,18.59-.61,27.64-1.79,4.99-.65,7.1-6.71,3.54-10.27l-109.68-109.68c-4.38-3.79-8.48-7.89-12.26-12.26Z"/>
  </g>
</svg>